name analog
datacolumns 19
datarows 18
range 0.0 0.0085
endheader
time	ground_force_vx	ground_force_vy	ground_force_vz	ground_force_px	ground_force_py	ground_force_pz	l_ground_force_vx	l_ground_force_vy	l_ground_force_vz	l_ground_force_px	l_ground_force_py	l_ground_force_pz	ground_torque_x	ground_torque_y	ground_torque_z	l_ground_torque_x	l_ground_torque_y	l_ground_torque_z
0.0	-0.0	-0.0	-0.0	-1.3895971775054932	41.02861785888672	-365.7268676757813	-2.7034621238708496	-42.88238906860352	-350.2165222167969	-0.0	-0.0	-0.0	-0.0	-0.0	-0.0	81055.265625	9390.998046875	-2308.0712890625
0.0005	-0.0	-0.0	-0.0	-1.610409140586853	40.89239501953125	-366.9539794921875	-2.9364500045776367	-42.31056594848633	-350.0156555175781	-0.0	-0.0	-0.0	-0.0	-0.0	-0.0	81256.3359375	9466.7763671875	-2311.04638671875
0.001	-0.0	-0.0	-0.0	-1.403891921043396	40.97653198242188	-367.58599853515625	-2.665895700454712	-42.357078552246094	-348.9860534667969	-0.0	-0.0	-0.0	-0.0	-0.0	-0.0	80987.4453125	9420.3046875	-2235.9287109375
0.0015	-0.0	-0.0	-0.0	-0.943866491317749	40.45566940307617	-366.9539794921875	-2.810654401779175	-42.09222412109375	-347.5530090332031	-0.0	-0.0	-0.0	-0.0	-0.0	-0.0	80905.78125	9329.19921875	-2268.71142578125
0.002	-0.0	-0.0	-0.0	-0.8547359704971313	40.58684921264648	-366.20941162109375	-3.1421828269958496	-42.134124755859375	-346.9098815917969	-0.0	-0.0	-0.0	-0.0	-0.0	-0.0	80904.1640625	9454.6103515625	-2148.747802734375
0.0025	-0.0	-0.0	-0.0	-0.8077940940856934	40.591556549072266	-364.8542785644531	-3.137295246124268	-41.74863815307617	-348.3969421386719	-0.0	-0.0	-0.0	-0.0	-0.0	-0.0	80758.953125	9305.130859375	-2192.343994140625
0.003	-0.0	-0.0	-0.0	-0.8450124263763428	40.57421875	-365.9535217285156	-3.137107610702514	-42.08769989013672	-347.93914794921875	-0.0	-0.0	-0.0	-0.0	-0.0	-0.0	80773.8515625	9314.4921875	-2297.052490234375
0.0035	-0.0	-0.0	-0.0	-1.0654979944229126	40.727569580078125	-365.1880493164063	-3.2872021198272705	-42.389530181884766	-347.57080078125	-0.0	-0.0	-0.0	-0.0	-0.0	-0.0	80759.1171875	9416.0654296875	-2302.154541015625
0.004	-0.0	-0.0	-0.0	-1.0654226541519165	41.131134033203125	-367.5997009277344	-3.387986421585083	-42.43609237670898	-347.4058837890625	-0.0	-0.0	-0.0	-0.0	-0.0	-0.0	80913.703125	9092.1103515625	-2248.662109375
0.0045000000000000005	-0.0	-0.0	-0.0	-1.2437682151794434	41.24609756469727	-366.6213073730469	-3.193588256835937	-42.08277130126953	-348.2091369628906	-0.0	-0.0	-0.0	-0.0	-0.0	-0.0	80940.765625	9305.0107421875	-2253.440185546875
0.005	-0.0	-0.0	-0.0	-0.9917649030685424	41.04194259643555	-367.1615905761719	-3.1986865997314453	-42.165992736816406	-347.9596862792969	-0.0	-0.0	-0.0	-0.0	-0.0	-0.0	80836.71875	9253.1650390625	-2203.00927734375
0.0055	-0.0	-0.0	-0.0	-1.474623441696167	41.54006576538086	-366.2895812988281	-3.0945305824279785	-42.12944793701172	-348.47369384765625	-0.0	-0.0	-0.0	-0.0	-0.0	-0.0	81033.03125	9012.8701171875	-2211.50048828125
0.006	-0.0	-0.0	-0.0	-1.4381190538406372	41.17287826538086	-366.6646423339844	-2.5778610706329346	-42.09312438964844	-347.71368408203125	-0.0	-0.0	-0.0	-0.0	-0.0	-0.0	81189.7734375	9065.21484375	-2104.717529296875
0.006500000000000001	-0.0	-0.0	-0.0	-0.6663644313812256	41.05268859863281	-367.7033386230469	-2.26477575302124	-42.22304916381836	-346.850830078125	-0.0	-0.0	-0.0	-0.0	-0.0	-0.0	81063.9921875	8805.0458984375	-1970.1619873046875
0.007	-0.0	-0.0	-0.0	-1.0286729335784912	41.05279922485352	-367.1632385253906	-2.24868392944336	-41.92737579345703	-346.9350280761719	-0.0	-0.0	-0.0	-0.0	-0.0	-0.0	80865.5	8864.12890625	-1853.217041015625
0.0075	-0.0	-0.0	-0.0	-0.8502896428108215	40.81615447998047	-366.5787048339844	-1.9878156185150144	-41.56349563598633	-345.98779296875	-0.0	-0.0	-0.0	-0.0	-0.0	-0.0	80813.7734375	8649.19921875	-1910.4693603515625
0.008	-0.0	-0.0	-0.0	-0.3263482451438904	40.423458099365234	-366.9762878417969	-2.1180269718170166	-41.19383239746094	-346.1729736328125	-0.0	-0.0	-0.0	-0.0	-0.0	-0.0	80591.3828125	8809.37109375	-1936.4432373046875
0.0085	-0.0	-0.0	-0.0	-0.1841291785240173	40.5183219909668	-366.6686096191406	-2.0763347148895264	-40.851558685302734	-344.1218566894531	-0.0	-0.0	-0.0	-0.0	-0.0	-0.0	80108.8984375	8636.59765625	-1825.0906982421875
